HIERARCHY
ROOT Hips
{
	OFFSET -14.64140 90.27770 -84.91600
	CHANNELS 6 Xposition Yposition Zposition Zrotation Xrotation Yrotation
	JOINT Spine
	{
		OFFSET 0.00000 13.20850 -1.60436
		CHANNELS 3 Zrotation Xrotation Yrotation
		JOINT Spine1
		{
			OFFSET 0.00000 8.61716 0.00000
			CHANNELS 3 Zrotation Xrotation Yrotation
			JOINT Spine2
			{
				OFFSET 0.00000 8.61717 0.00000
				CHANNELS 3 Zrotation Xrotation Yrotation
				JOINT Spine3
				{
					OFFSET 0.00000 8.61717 0.00000
					CHANNELS 3 Zrotation Xrotation Yrotation
					JOINT Neck
					{
						OFFSET 0.00000 11.07920 1.10792
						CHANNELS 3 Zrotation Xrotation Yrotation
						JOINT Neck1
						{
							OFFSET 0.00000 7.08032 0.00000
							CHANNELS 3 Zrotation Xrotation Yrotation
							JOINT Head
							{
								OFFSET 0.00000 7.08031 0.00000
								CHANNELS 3 Zrotation Xrotation Yrotation
								End site
								{
									OFFSET 0.00000 0.00000 0.00000
								}
							}
						}
					}
					JOINT RightShoulder
					{
						OFFSET -0.01000 7.91373 5.19711
						CHANNELS 3 Zrotation Xrotation Yrotation
						JOINT RightArm
						{
							OFFSET -18.41580 0.00000 0.00000
							CHANNELS 3 Zrotation Xrotation Yrotation
							JOINT RightForeArm
							{
								OFFSET -29.11090 0.00000 0.00000
								CHANNELS 3 Zrotation Xrotation Yrotation
								JOINT RightHand
								{
									OFFSET -24.65040 0.00000 0.00000
									CHANNELS 3 Zrotation Xrotation Yrotation
									JOINT RightHandThumb1
									{
										OFFSET -5.35114 -0.85590 3.97906
										CHANNELS 3 Zrotation Xrotation Yrotation
										JOINT RightHandThumb2
										{
											OFFSET -4.52789 0.00000 0.00000
											CHANNELS 3 Zrotation Xrotation Yrotation
											JOINT RightHandThumb3
											{
												OFFSET -2.46976 0.00000 0.00000
												CHANNELS 3 Zrotation Xrotation Yrotation
												End site
												{
													OFFSET 0.00000 0.00000 0.00000
												}
											}
										}
									}
									JOINT RightHandIndex1
									{
										OFFSET -14.26970 0.00000 2.88139
										CHANNELS 3 Zrotation Xrotation Yrotation
										JOINT RightHandIndex2
										{
											OFFSET -5.48836 0.00000 0.00000
											CHANNELS 3 Zrotation Xrotation Yrotation
											JOINT RightHandIndex3
											{
												OFFSET -3.01859 0.00000 0.00000
												CHANNELS 3 Zrotation Xrotation Yrotation
												End site
												{
													OFFSET 0.00000 0.00000 0.00000
												}
											}
										}
									}
									JOINT RightHandMiddle1
									{
										OFFSET -14.26970 0.00000 -0.09147
										CHANNELS 3 Zrotation Xrotation Yrotation
										JOINT RightHandMiddle2
										{
											OFFSET -6.17441 0.00000 0.00000
											CHANNELS 3 Zrotation Xrotation Yrotation
											JOINT RightHandMiddle3
											{
												OFFSET -3.56743 0.00000 0.00000
												CHANNELS 3 Zrotation Xrotation Yrotation
												End site
												{
													OFFSET 0.00000 0.00000 0.00000
												}
											}
										}
									}
									JOINT RightHandRing1
									{
										OFFSET -12.69180 0.00000 -3.06433
										CHANNELS 3 Zrotation Xrotation Yrotation
										JOINT RightHandRing2
										{
											OFFSET -5.62556 0.00000 0.00000
											CHANNELS 3 Zrotation Xrotation Yrotation
											JOINT RightHandRing3
											{
												OFFSET -3.56744 0.00000 0.00000
												CHANNELS 3 Zrotation Xrotation Yrotation
												End site
												{
													OFFSET 0.00000 0.00000 0.00000
												}
											}
										}
									}
									JOINT RightHandPinky1
									{
										OFFSET -11.11390 0.00000 -6.03719
										CHANNELS 3 Zrotation Xrotation Yrotation
										JOINT RightHandPinky2
										{
											OFFSET -4.52789 0.00000 0.00000
											CHANNELS 3 Zrotation Xrotation Yrotation
											JOINT RightHandPinky3
											{
												OFFSET -2.46976 0.00000 0.00000
												CHANNELS 3 Zrotation Xrotation Yrotation
												End site
												{
													OFFSET 0.00000 0.00000 0.00000
												}
											}
										}
									}
								}
							}
						}
					}
					JOINT LeftShoulder
					{
						OFFSET 0.01000 7.91373 5.19711
						CHANNELS 3 Zrotation Xrotation Yrotation
						JOINT LeftArm
						{
							OFFSET 18.41580 0.00000 0.00000
							CHANNELS 3 Zrotation Xrotation Yrotation
							JOINT LeftForeArm
							{
								OFFSET 29.11090 0.00000 0.00000
								CHANNELS 3 Zrotation Xrotation Yrotation
								JOINT LeftHand
								{
									OFFSET 24.65040 0.00000 0.00000
									CHANNELS 3 Zrotation Xrotation Yrotation
									JOINT LeftHandThumb1
									{
										OFFSET 5.35114 -0.85590 3.97906
										CHANNELS 3 Zrotation Xrotation Yrotation
										JOINT LeftHandThumb2
										{
											OFFSET 4.52789 0.00000 0.00000
											CHANNELS 3 Zrotation Xrotation Yrotation
											JOINT LeftHandThumb3
											{
												OFFSET 2.46977 0.00000 0.00000
												CHANNELS 3 Zrotation Xrotation Yrotation
												End site
												{
													OFFSET 0.00000 0.00000 0.00000
												}
											}
										}
									}
									JOINT LeftHandIndex1
									{
										OFFSET 14.26970 0.00000 2.88139
										CHANNELS 3 Zrotation Xrotation Yrotation
										JOINT LeftHandIndex2
										{
											OFFSET 5.48836 0.00000 0.00000
											CHANNELS 3 Zrotation Xrotation Yrotation
											JOINT LeftHandIndex3
											{
												OFFSET 3.01859 0.00000 0.00000
												CHANNELS 3 Zrotation Xrotation Yrotation
												End site
												{
													OFFSET 0.00000 0.00000 0.00000
												}
											}
										}
									}
									JOINT LeftHandMiddle1
									{
										OFFSET 14.26970 0.00000 -0.09147
										CHANNELS 3 Zrotation Xrotation Yrotation
										JOINT LeftHandMiddle2
										{
											OFFSET 6.17440 0.00000 0.00000
											CHANNELS 3 Zrotation Xrotation Yrotation
											JOINT LeftHandMiddle3
											{
												OFFSET 3.56744 0.00000 0.00000
												CHANNELS 3 Zrotation Xrotation Yrotation
												End site
												{
													OFFSET 0.00000 0.00000 0.00000
												}
											}
										}
									}
									JOINT LeftHandRing1
									{
										OFFSET 12.69180 0.00000 -3.06433
										CHANNELS 3 Zrotation Xrotation Yrotation
										JOINT LeftHandRing2
										{
											OFFSET 5.62556 0.00000 0.00000
											CHANNELS 3 Zrotation Xrotation Yrotation
											JOINT LeftHandRing3
											{
												OFFSET 3.56744 0.00000 0.00000
												CHANNELS 3 Zrotation Xrotation Yrotation
												End site
												{
													OFFSET 0.00000 0.00000 0.00000
												}
											}
										}
									}
									JOINT LeftHandPinky1
									{
										OFFSET 11.11390 0.00000 -6.03719
										CHANNELS 3 Zrotation Xrotation Yrotation
										JOINT LeftHandPinky2
										{
											OFFSET 4.52789 0.00000 0.00000
											CHANNELS 3 Zrotation Xrotation Yrotation
											JOINT LeftHandPinky3
											{
												OFFSET 2.46976 0.00000 0.00000
												CHANNELS 3 Zrotation Xrotation Yrotation
												End site
												{
													OFFSET 0.00000 0.00000 0.00000
												}
											}
										}
									}
								}
							}
						}
					}
					JOINT pCube4
					{
						OFFSET 0.00000 10.91090 1.10792
						CHANNELS 3 Zrotation Xrotation Yrotation
						End site
						{
							OFFSET 0.00000 0.00000 0.00000
						}
					}
				}
			}
		}
	}
	JOINT RightUpLeg
	{
		OFFSET -9.98441 0.00000 0.00000
		CHANNELS 3 Zrotation Xrotation Yrotation
		JOINT RightLeg
		{
			OFFSET 0.00000 -42.11790 0.00000
			CHANNELS 3 Zrotation Xrotation Yrotation
			JOINT RightFoot
			{
				OFFSET 0.00000 -45.00020 -0.00001
				CHANNELS 3 Zrotation Xrotation Yrotation
				JOINT RightForeFoot
				{
					OFFSET 0.00000 -3.74820 0.00000
					CHANNELS 3 Zrotation Xrotation Yrotation
					JOINT RightToeBase
					{
						OFFSET 0.00000 0.06325 14.43120
						CHANNELS 3 Zrotation Xrotation Yrotation
						End site
						{
							OFFSET 0.00000 0.00000 0.00000
						}
					}
				}
			}
		}
	}
	JOINT LeftUpLeg
	{
		OFFSET 9.98441 0.00000 0.00000
		CHANNELS 3 Zrotation Xrotation Yrotation
		JOINT LeftLeg
		{
			OFFSET 0.00000 -42.11800 0.00000
			CHANNELS 3 Zrotation Xrotation Yrotation
			JOINT LeftFoot
			{
				OFFSET 0.00000 -45.00070 0.00000
				CHANNELS 3 Zrotation Xrotation Yrotation
				JOINT LeftForeFoot
				{
					OFFSET 0.00000 -3.74824 0.00000
					CHANNELS 3 Zrotation Xrotation Yrotation
					JOINT LeftToeBase
					{
						OFFSET 0.00000 0.06325 14.43110
						CHANNELS 3 Zrotation Xrotation Yrotation
						End site
						{
							OFFSET 0.00000 0.00000 0.00000
						}
					}
				}
			}
		}
	}
}
MOTION
Frames: 4
Frame Time: 0.050000
0.023884064221905175 0.009497371497774118 -0.020342294565389954 0.02820891429467929 0.04149683010056848 0.04585112398396713 0.24768197427632943 3.6534661954051724 -1.3936194425211932 -1.0303859758439058 3.5067046480632498 0.4805203881996217 -1.0392383309751498 -1.0935727965757673 0.8329306542431574 -1.3681004741402516 -0.37656729451967763 -0.4294418313434591 -0.5535004793971808 11.497647386230915 1.293930866667429 0.01987426680717469 -0.3564916542406241 1.4065837301766786 -0.23358528925281208 -15.75930404869414 0.17955167956672696 -9.076995958873663 3.3825065408199664 -14.63771009590865 62.77551847427407 -19.678920216715987 27.53932476412449 20.289396161596063 -4.600106175030191 80.89717830685048 16.396042829833398 -0.4827828667082259 -4.70694888417519 4.568532611195975 -0.13833993279528262 -1.5752702992306178 0.001565765552796811 -0.040400259064409055 -56.200368559836974 0.038337193945270846 0.021706973735829582 -56.22661404673878 -38.719869368843995 0.033470943652840306 0.006193226869944332 -0.045478827426448556 0.024184069105898594 0.045586538180286636 -0.026104359193179764 -0.02986270483376717 0.03243410975715517 -36.73429846665266 0.02081322656942989 -0.0419709576338913 -0.038127272752596024 -0.013447455011444743 -0.02728324981336821 0.04851654371913427 0.00818442875537657 -0.02000042941704506 -19.717168350744167 0.010374273352522109 0.03370924105339975 -0.0034050072317194464 -0.016378729030574964 0.049358542349152004 -0.042724001326058435 -0.02423088531216147 -0.043195155996629674 24.079816565657982 -0.04676830334375472 -0.047667094637755814 28.891663021484206 -0.04227936125612025 -0.037668827707352345 28.821949054010698 0.013567626444971065 0.04633778323312618 7.448953223527209 1.9113151864398645 13.113879421888056 -62.29966425464122 16.404856454530744 -18.25435594769356 7.991535449501616 -8.426488809634746 -50.55173652327404 -17.687459241415574 -0.5872908286467068 3.4776444037572336 -0.43007441447465056 0.04365658588776762 -8.120240003139712 -0.04531025205060662 -0.045720151587081 44.55863818348759 -0.03423182552023655 -0.0006690171303492754 44.59246517581091 12.452476511036146 -0.0009565286881913555 -0.04636669928579716 -0.012697449149904005 0.0036647074923559877 0.013861485663677134 -0.02666678639518847 -0.02878124428310767 -0.0014241386547144798 11.136554622295582 -0.032416535194276626 -0.01873564089835382 -0.04299962038788232 0.01443063676990718 0.013976999954579752 -0.005621801953153061 0.04674799254590906 -0.03128314528961094 4.778002348623158 -0.04906467274573703 0.03556613702491275 0.011479003077074333 0.013812463005459318 0.022151733959340086 -0.015490271292030136 -0.020886468561549725 0.01147615640577821 -5.628936256273873 -0.04022437258386296 0.021069048200306806 -6.69856409923946 0.008769891825803669 0.048231292402740295 -6.713328472306898 0.011111283003002218 -0.02140413035993352 -0.04207960516489099 0.01886490037923593 0.03380277937037119 8.06403039001385 3.500964323607288 -19.20270490589733 -0.0337712742831297 10.403622818273195 0.010467394489797145 -5.6229871124927255 -15.621477178144834 3.1471917724862566 0.036359198521437985 0.028085752589793237 -0.013738639553433567 0.002754983634856745 4.695350245629359 -0.037636659382698834 12.45679949126503 -8.245421702598602 6.835602069916108 0.025739251042207666 46.40709557921331 0.011819958345120877 -4.312290464476923 -14.751999290194442 -3.801656844530491 0.02049831073936759 -0.04080068419785635 0.0054040356030829 -0.02626615202614474 -10.695542679602106 0.020996253054649697 
0.03072595533835087 0.010391885549937217 -0.038509827450372826 -0.014976158184060066 -0.006389995463045785 -0.013367945754357577 0.42529971141602 3.551732421709093 -1.411295519844627 -0.9949019509805761 3.524599188148471 0.4278603565843212 -1.0687921805068659 -0.9814533040052899 0.8040378170924154 -1.182903320962348 -0.39518597339462613 -0.4265302946823892 -0.30232306465370373 11.373572241194948 0.533698346126141 0.06441340277462769 -0.5006175494859613 -0.16983099351666225 0.07927080729363985 -15.970762769622553 -0.021993038083921015 -9.350051713610796 3.457643468412696 -14.953588262899842 63.3150801677502 -21.572069223214847 27.388310664472975 19.31874656386693 -4.015690074656448 80.6540607128192 15.364610453951435 -0.5239224535636486 -4.320327930941286 4.523087116836923 -0.16601162811747822 -1.5729586888794245 -0.02211119655907876 -0.02645915473140836 -56.20161630051713 0.009463493215198166 0.0347084487787168 -56.26051999706974 -38.784324925031385 -0.00811414925196951 0.0035902976063819695 0.01523838485404707 0.0157020475542684 0.01979922735227295 0.03959129113582716 -0.0312863605874386 -0.04010212570366911 -36.71976964414019 -0.004113050087296552 -0.02000949836654025 -0.004509381470373229 0.046688165672355744 -0.004009708612443452 -0.011469829839692915 0.012785494749126507 0.0023498898298973665 -19.76961828552403 -0.027925409185497803 -0.003925438707333819 -0.029341853071185246 0.049336678595299804 0.006804052180440483 -0.03460686283651849 -0.047342372512322026 0.011798742156448647 24.083000410324715 -0.04958370846925081 -0.009322566334538028 28.816947098894996 0.003076007468190029 -0.001363661632647531 28.851937905335806 -0.01087913750989511 -0.019663883448469907 7.147335879614503 1.8587087004385523 13.056350632699221 -62.87341965403001 16.907114560821775 -17.31419764532805 6.89181180299877 -7.652522973529478 -50.46716872335074 -17.313759460373713 -1.1410353285468762 3.74891201591332 -0.5134603493992721 0.05156843929568897 -8.154408177535688 -0.03655729894837473 0.03700264662618287 44.53824802250473 -0.011029615675405046 -0.0008954908219337725 44.5269368671938 12.468699617297169 -0.042205414097989474 -0.03569076705685212 0.008806706139460252 0.027041367419851824 -0.04004410833356216 0.0477417364813672 0.011307523969815637 -0.034819158301357185 11.057267702063028 -0.0053337286392922375 0.023917580738076843 -0.04127230194542901 -0.012306152447634505 0.013158477231896665 -0.0026864378742161954 -0.019573906561116357 -0.04435392298809469 4.737249332985727 0.026675199290398858 -0.023847873048252848 -0.03008601387456372 0.008967401665817757 -0.04805365189403624 -0.044501642399697255 0.02737596990997098 0.016925481109629357 -5.6211814869587515 0.02728207076090511 0.014463611591016456 -6.751450214356473 0.049037004354659734 -0.024476973759298692 -6.689237168296518 -0.04997334830409577 -0.013384076586047674 -0.04741257064710594 0.019425201678706216 0.005933517035537528 8.017381829281414 3.4494130526602818 -19.250866951748808 0.035107467066044146 10.379926513322086 0.011393930239110778 -5.5915324503041095 -15.681081160937355 3.171286587529098 -0.007251781545262084 -0.04274928615380011 -0.0027010023377353207 -0.032041733480205656 4.724521253955193 0.048298838321714006 12.501957311873516 -8.230558700061202 6.886453253626435 0.013575812451343015 46.42479589939363 0.00789274257967259 -4.372825011079178 -14.740482421661044 -3.8113657596271073 0.036235509130648304 0.02365436977745534 -0.025495581918045414 0.01879911042995161 -10.762499921609805 -0.005469097204002743 
0.03868836139041322 0.002984695643282482 -0.03886899563147246 0.03905480137861951 -0.037599824970058336 -0.025286029962728208 0.520920403124002 3.694244922431585 -1.4666712936853188 -1.0250469764524606 3.5091739875070296 0.45142420026374025 -1.0564545890545374 -0.8951914760486362 0.5740421430374827 -0.9870268735766677 -0.3765433134681107 -0.46729417513869004 -0.13952839788925636 11.079049597158113 0.10457849320462556 0.05538986228201647 -0.6568353929512822 -1.0413984701482175 0.2275303127141464 -16.23334639874373 -0.11722614265815869 -9.108169823750439 3.3490946393435985 -15.235086012251703 64.37054130303116 -22.399909540913047 25.117415488699294 19.50353214915606 -3.0472258182887915 80.08108252760171 14.579576226753494 -0.515656283779749 -4.170729087201396 4.522358141190339 -0.15576083049747846 -1.6215632495585215 -0.030683338387665772 0.021292754325122776 -56.186733420985014 -0.030021844916150047 0.020345012755593358 -56.243075214083795 -38.731070734044685 0.029534517943486695 -0.01915305255482686 -0.0038594926066902683 -0.024589610411152762 -0.029270544554320516 -0.029615754165417334 0.04336032943651126 -0.03448460939241443 -36.718443841429874 -0.01422217287842188 -0.022067396608507175 0.0390068168455511 0.02375098648506269 -0.03914893684585385 0.03745809254618733 -0.02768987404013586 0.019977906942710136 -19.786013030191274 0.022784712652797776 -0.03726953486685398 -0.016743961783697664 -0.024187933473352914 -0.02767145331140999 -0.03456121910223491 -0.033695199066766476 -0.044964471458289405 24.078021033415002 -0.015073259846870581 0.031098106142415764 28.902338884565655 -0.009486538023491737 0.03757936127721903 28.907003142399887 -0.04199458398114361 0.03841253286830906 6.733898335118473 1.7678739095690303 12.95361747358287 -63.4774346045192 17.779259087123247 -16.321856160195995 5.430978952100323 -6.468549593034465 -51.02330962476365 -16.76634321016261 -1.7044262253706293 3.950969604569682 -0.4366202543594232 0.062125817322076886 -8.077450210433009 0.0015919794981118836 0.01769172679094255 44.59158590268872 -0.022457570771980663 0.019911920781261083 44.60498330946638 12.444134730811337 0.0202608729323749 -0.009360903971779633 -0.02571142724189522 0.03765456519748097 -0.020751078452053116 -0.03267188452614067 -0.012601642338812391 0.0030305522978591134 11.078657303323268 0.014879668413661866 -0.020296224706904953 0.0075298055383289635 0.033975173175004945 -0.04621427773210407 0.03707329369566895 0.0005601889248284986 -0.0443493244941261 4.724844329765412 0.04461439290949988 0.031790971387707805 -0.004413582622730178 -0.04006567626737244 0.04398204995422282 0.0042938387489486534 0.026004941323004287 0.048061285456931495 -5.602391596380333 0.022004270314021315 0.04690583808159506 -6.765923435967971 -0.03678737802031394 -0.04153863720751945 -6.770579130248131 -0.03872863681903902 0.03826086108398448 0.002437581471062049 0.0465213645561874 0.0035569279435556673 8.038149101127678 3.455047150653142 -19.21892214237475 0.007844534394752113 10.400558094548082 0.043353792255130565 -5.645569814245565 -15.641638340989775 3.2259509000466244 0.0471792239319698 0.0011897380000519002 -0.025719367378675764 -0.026332577964379884 4.692115183778403 0.009144399384641242 12.41588900995677 -8.281075059399774 6.890547591921488 -0.03434373393872492 46.42751552573048 0.030545564858201157 -4.35748830908046 -14.793903563364115 -3.8112544587193975 0.0006637024572753846 -0.028804231040904807 0.0414395796056069 0.020094541983005556 -10.788865017484204 0.0006202962158573823 
-0.04825490218403816 -0.0019798631491770627 0.046420547803357075 0.002265571388372782 -0.004853376157294166 0.03337839185702129 0.5873630620251218 4.1566769088885716 -1.5081417528152494 -1.0598666645875718 3.5360857480981776 0.4622621183220911 -1.0361033495077159 -0.6994760771655939 0.3541335060512 -0.7289388128322527 -0.2738488553669772 -0.5229331841864082 -0.08104114564216558 10.86507052341053 -0.23678830619318222 0.05833073539892801 -0.9350149096901031 -1.5990606258528814 0.31158035950801327 -16.691703756245158 -0.09967537140631669 -8.651215056307448 3.201805504574668 -15.579521479078302 65.59674318794929 -22.68729258201685 22.142268865426196 20.40779965915491 -2.119721583930989 78.88430796186518 13.840346906692277 -0.3997763145458214 -3.9778584083359547 4.500665806743709 -0.16925323477283688 -1.6227298697050427 -0.002422354385832076 0.011495249716996695 -56.24311234267997 -0.04765463308816411 0.034850069420889335 -56.186410907063014 -38.73160897687642 0.004889500220334544 0.005143638985242804 0.03661917398406322 0.021781102971986592 0.02573497995443547 0.031001005716698532 -0.03218680857317628 0.014094994000802764 -36.74094749366269 0.03867555131168375 -0.0015522331751064078 -0.043973530692919684 -0.018687909140032696 0.004915704028488176 -0.0461111785142045 -0.00882929052826185 -0.04594982074739229 -19.788408081462233 0.01248290966178806 -0.04430231489576407 -0.01817844622407445 0.019084537647821496 -0.03225443322815006 0.03244004415538226 0.01287008552499056 -0.017479070811982418 24.037486184227955 -0.0004897329743145924 -0.035092189421482796 28.82137442818502 0.042948283055391986 -0.034813103011381255 28.83790388141017 0.03684838205255187 0.035220706501644765 6.297324103443885 1.674755360542269 12.89655306748982 -63.80392797908068 18.760164157951237 -15.462098873478457 3.6284889395779545 -5.223285531940363 -52.46630307327398 -16.050087716802608 -2.087012944512463 4.045824406185268 -0.4879475979431184 0.05001578316726565 -8.082985468653611 -0.04844324061464122 -0.0035431782591446295 44.561652070701214 0.013250426023505155 -0.001004365209647054 44.54283278200343 12.507993665384337 0.005545461676354557 0.030956567718019246 -0.027059312445156972 -0.0025729026880006163 0.006753082402131367 -0.0184940865412732 -0.03349121225291786 0.01716854439778445 11.134628601005284 0.03063734668629757 0.0037462453317387762 -0.02953461972357355 0.016893555577393683 -0.024452249502296332 0.004272577145860808 -0.00980891490152497 0.03580866989672346 4.758351678789572 0.038988996760231064 -0.005715018094506704 -0.0351334776638013 0.01964984702411314 0.0064670245452419575 -0.0473635155421928 0.02951040157453721 0.036803105158741335 -5.603811546458852 0.02687715912912402 -0.025129937285620046 -6.752356564307365 -0.03872247395322747 0.02746938793879195 -6.751368507862223 -0.031637257561053816 -0.03207710546575621 0.0025731369815058325 0.02985919790192421 0.04161029421762622 8.015422433300058 3.535526612976929 -19.21282468594608 -0.020017133731772614 10.374771014131777 0.04818054530604819 -5.621937076369804 -15.688835560469377 3.1763727042062078 -0.01440710742523906 -0.047287959208966536 -0.022839936696007767 -0.003744634415958086 4.669168031864027 -0.03450836838649961 12.489811718525889 -8.248606169184173 6.925284038446755 0.027693555799850743 46.40457423558404 -0.025107672227908506 -4.31551566825448 -14.736005537498352 -3.82323454181946 -0.04160133887464723 0.018605038434289057 -0.008860236880389753 0.009880573145646424 -10.71713097162742 0.03359880501091988 
